<?xml version="1.0" standalone="no"?>
<!DOCTYPE svg PUBLIC "-//W3C//DTD SVG 20010904//EN"
 "http://www.w3.org/TR/2001/REC-SVG-20010904/DTD/svg10.dtd">
<svg version="1.0" xmlns="http://www.w3.org/2000/svg"
 width="1024.000000pt" height="1024.000000pt" viewBox="0 0 1024.000000 1024.000000"
 preserveAspectRatio="xMidYMid meet">
<metadata>
Created by potrace 1.14, written by Peter Selinger 2001-2017
</metadata>
<g transform="translate(0.000000,1024.000000) scale(0.100000,-0.100000)"
fill="#000000" stroke="none">
<path d="M5850 8737 c-474 -204 -753 -459 -887 -816 -61 -162 -81 -364 -58
-581 7 -74 13 -135 12 -136 -1 -1 -58 -38 -127 -84 -474 -314 -733 -550 -982
-895 -61 -84 -175 -315 -212 -425 -131 -403 -126 -867 13 -1215 73 -183 178
-350 324 -521 248 -288 580 -487 1004 -599 184 -49 273 -21 273 86 0 65 -37
93 -182 140 -414 134 -728 495 -815 936 -20 106 -23 386 -4 478 71 345 272
646 630 947 103 86 220 173 225 167 2 -2 11 -60 20 -129 9 -69 23 -162 30
-208 l13 -83 -55 -35 c-89 -57 -238 -209 -308 -314 -73 -111 -103 -174 -133
-285 -33 -119 -36 -147 -35 -310 2 -176 19 -255 87 -399 70 -146 166 -259 261
-308 41 -21 83 -18 92 7 3 8 -12 50 -34 94 -108 216 -71 444 102 629 51 54
143 128 151 120 4 -3 53 -285 68 -388 49 -330 132 -870 167 -1085 16 -99 32
-202 36 -230 3 -27 17 -126 30 -220 25 -181 30 -321 13 -395 -27 -117 -132
-260 -226 -309 l-42 -21 19 33 c61 103 85 269 56 392 -49 206 -209 384 -396
440 -86 25 -252 31 -330 11 -315 -79 -514 -381 -471 -714 19 -147 57 -237 152
-357 87 -111 202 -186 369 -242 80 -26 95 -28 255 -28 188 0 268 13 407 67
221 84 416 283 497 505 70 191 66 356 -19 863 -25 150 -107 684 -165 1075 -25
171 -52 342 -60 380 -15 76 -31 174 -40 245 -3 25 -8 57 -11 71 -5 24 -1 28
43 44 72 26 280 32 376 11 141 -32 295 -121 392 -228 200 -221 237 -507 103
-797 -61 -134 -135 -220 -299 -349 -61 -48 -80 -70 -94 -107 -16 -39 -16 -52
-6 -88 46 -154 210 -158 436 -9 332 218 542 521 615 885 26 127 28 390 4 503
-78 380 -337 709 -705 895 -84 42 -276 104 -369 119 -77 12 -416 9 -475 -4
-16 -4 -55 -14 -86 -22 -31 -7 -59 -14 -62 -14 -3 0 -7 15 -11 33 -7 40 -66
438 -66 448 0 4 24 24 53 45 262 190 490 425 589 609 50 91 97 209 125 315 23
83 26 120 30 300 4 175 1 239 -21 440 -15 129 -33 273 -41 320 -7 47 -17 110
-20 140 -19 154 -100 210 -225 157z m-3 -614 c-18 -246 -135 -393 -531 -668
l-99 -68 5 119 c9 207 75 353 227 504 113 113 224 170 351 183 19 2 39 5 44 5
5 1 6 -32 3 -75z"/>
<path d="M4716 1509 c-243 -29 -342 -67 -320 -122 13 -34 101 -68 214 -82 30
-4 64 -9 75 -11 72 -15 375 -27 705 -27 412 0 617 12 814 49 80 15 136 48 136
80 0 43 -90 82 -235 103 -38 6 -88 13 -110 17 -22 4 -283 8 -580 10 -485 2
-556 1 -699 -17z"/>
</g>
</svg>
